<svg height="512.00057pt" viewBox="0 0 512.00057 512.00057" width="512.00057pt" xmlns="http://www.w3.org/2000/svg" xmlns:xlink="http://www.w3.org/1999/xlink"><linearGradient id="a"><stop offset="0" stop-color="#7ac943"/><stop offset=".4564" stop-color="#5fc146"/><stop offset="1" stop-color="#39b54a"/></linearGradient><linearGradient id="b" gradientUnits="userSpaceOnUse" x1="216.5074551874" x2="336.064827344" xlink:href="#a" y1="127.999985" y2="127.999985"/><linearGradient id="c"><stop offset="0" stop-color="#39b54a" stop-opacity="0"/><stop offset=".1072" stop-color="#2fab48" stop-opacity=".105882"/><stop offset=".4553" stop-color="#159043" stop-opacity=".454902"/><stop offset=".7642" stop-color="#06803f" stop-opacity=".764706"/><stop offset="1" stop-color="#007a3e"/></linearGradient><linearGradient id="d" gradientUnits="userSpaceOnUse" x1="253.9597693194" x2="198.5021141174" xlink:href="#c" y1="131.1416585068" y2="273.986808513"/><linearGradient id="e" gradientUnits="userSpaceOnUse" x1="305.3395937496" x2="201.9867273794" xlink:href="#c" y1="85.6663009274" y2="250.358500321"/><linearGradient id="f" gradientTransform="matrix(-1.003922 0 0 -1.003922 511.99993 392.68867)" gradientUnits="userSpaceOnUse" x1="215.6617" x2="334.752" xlink:href="#a" y1="8.6548" y2="8.6548"/><linearGradient id="g" gradientTransform="matrix(-1.003922 0 0 -1.003922 511.99993 392.68867)" gradientUnits="userSpaceOnUse" x1="252.9677" x2="197.7267" xlink:href="#c" y1="11.7842" y2="154.0713"/><linearGradient id="h" gradientTransform="matrix(-1.003922 0 0 -1.003922 511.99993 392.68867)" gradientUnits="userSpaceOnUse" x1="304.1468" x2="201.1977" xlink:href="#c" y1="-33.5135" y2="130.5353"/><linearGradient id="i" gradientTransform="matrix(0 1.003922 -1.003922 0 511.99993 -.00007)" gradientUnits="userSpaceOnUse" x1="215.6617" x2="334.752" xlink:href="#a" y1="127.5" y2="127.5"/><linearGradient id="j" gradientTransform="matrix(0 1.003922 -1.003922 0 511.99993 -.00007)" gradientUnits="userSpaceOnUse" x1="252.9677" x2="197.7267" xlink:href="#c" y1="130.6294" y2="272.9165"/><linearGradient id="k" gradientTransform="matrix(0 1.003922 -1.003922 0 511.99993 -.00007)" gradientUnits="userSpaceOnUse" x1="304.1468" x2="201.1977" xlink:href="#c" y1="85.3317" y2="249.3805"/><linearGradient id="l" gradientTransform="matrix(0 -1.003922 1.003922 0 119.311189 511.99993)" gradientUnits="userSpaceOnUse" x1="215.6617" x2="334.752" xlink:href="#a" y1="8.6548" y2="8.6548"/><linearGradient id="m" gradientTransform="matrix(0 -1.003922 1.003922 0 119.311189 511.99993)" gradientUnits="userSpaceOnUse" x1="252.9677" x2="197.7267" xlink:href="#c" y1="11.7842" y2="154.0713"/><linearGradient id="n" gradientTransform="matrix(0 -1.003922 1.003922 0 119.311189 511.99993)" gradientUnits="userSpaceOnUse" x1="304.1468" x2="201.1977" xlink:href="#c" y1="-33.5135" y2="130.5353"/><path d="m237.3125 10.835938c-28.023438-17.96875-64.910156-13.183594-87.425781 11.335937-30.703125 33.441406-30.703125 84.816406 0 118.253906l106.113281 115.574219 106.113281-115.574219c30.699219-33.4375 30.703125-84.8125 0-118.253906-22.515625-24.519531-59.402343-29.304687-87.425781-11.335937-11.386719 7.300781-25.984375 7.300781-37.375 0zm0 0" fill="url(#b)"/><path d="m242.082031 73.40625c-20.871093-13.382812-48.34375-9.820312-65.113281 8.445312-22.867188 24.902344-22.867188 63.167969 0 88.070313l79.03125 86.078125 79.03125-86.078125c22.867188-24.902344 22.867188-63.167969 0-88.070313-16.769531-18.265624-44.242188-21.828124-65.113281-8.445312-8.480469 5.4375-19.355469 5.4375-27.835938 0zm0 0" fill="url(#d)"/><path d="m362.113281 22.171875c-22.515625-24.519531-59.402343-29.304687-87.425781-11.335937-5.695312 3.652343-12.191406 5.476562-18.6875 5.476562v239.6875l106.113281-115.574219c30.699219-33.4375 30.699219-84.8125 0-118.253906zm0 0" fill="url(#e)"/><path d="m274.6875 501.164062c28.023438 17.96875 64.910156 13.183594 87.425781-11.335937 30.703125-33.441406 30.699219-84.816406 0-118.253906l-106.113281-115.574219-106.113281 115.574219c-30.703125 33.4375-30.703125 84.8125 0 118.253906 22.515625 24.519531 59.402343 29.304687 87.425781 11.335937 11.390625-7.300781 25.988281-7.300781 37.375 0zm0 0" fill="url(#f)"/><path d="m269.917969 438.59375c20.871093 13.382812 48.34375 9.820312 65.113281-8.445312 22.867188-24.902344 22.867188-63.167969 0-88.074219l-79.03125-86.074219-79.03125 86.074219c-22.867188 24.90625-22.867188 63.171875 0 88.074219 16.769531 18.265624 44.242188 21.828124 65.113281 8.445312 8.480469-5.4375 19.355469-5.4375 27.835938 0zm0 0" fill="url(#g)"/><path d="m149.886719 489.828125c22.515625 24.519531 59.402343 29.304687 87.425781 11.335937 5.695312-3.652343 12.191406-5.476562 18.6875-5.476562v-239.6875l-106.113281 115.574219c-30.703125 33.4375-30.703125 84.8125 0 118.253906zm0 0" fill="url(#h)"/><path d="m501.164062 237.3125c17.96875-28.023438 13.183594-64.910156-11.335937-87.425781-33.441406-30.699219-84.816406-30.699219-118.253906 0l-115.574219 106.113281 115.574219 106.113281c33.4375 30.699219 84.8125 30.703125 118.253906 0 24.519531-22.515625 29.304687-59.402343 11.335937-87.425781-7.300781-11.386719-7.300781-25.984375 0-37.375zm0 0" fill="url(#i)"/><path d="m438.59375 242.082031c13.382812-20.871093 9.820312-48.34375-8.445312-65.113281-24.902344-22.867188-63.167969-22.867188-88.074219 0l-86.074219 79.03125 86.074219 79.03125c24.90625 22.867188 63.171875 22.867188 88.074219 0 18.265624-16.769531 21.828124-44.242188 8.445312-65.113281-5.4375-8.480469-5.4375-19.355469 0-27.835938zm0 0" fill="url(#j)"/><path d="m489.828125 362.113281c24.519531-22.515625 29.304687-59.402343 11.335937-87.425781-3.652343-5.695312-5.476562-12.191406-5.476562-18.6875h-239.6875l115.574219 106.113281c33.4375 30.699219 84.8125 30.699219 118.253906 0zm0 0" fill="url(#k)"/><path d="m10.835938 274.6875c-17.96875 28.023438-13.183594 64.910156 11.335937 87.425781 33.441406 30.703125 84.816406 30.699219 118.253906 0l115.574219-106.113281-115.574219-106.113281c-33.4375-30.703125-84.8125-30.703125-118.253906 0-24.519531 22.515625-29.304687 59.402343-11.335937 87.425781 7.300781 11.390625 7.300781 25.988281 0 37.375zm0 0" fill="url(#l)"/><path d="m73.40625 269.917969c-13.382812 20.871093-9.820312 48.34375 8.445312 65.113281 24.902344 22.867188 63.167969 22.867188 88.070313 0l86.078125-79.03125-86.078125-79.03125c-24.902344-22.867188-63.167969-22.867188-88.070313 0-18.265624 16.769531-21.828124 44.242188-8.445312 65.113281 5.4375 8.480469 5.4375 19.355469 0 27.835938zm0 0" fill="url(#m)"/><path d="m22.171875 149.886719c-24.519531 22.515625-29.304687 59.402343-11.335937 87.425781 3.652343 5.695312 5.476562 12.191406 5.476562 18.6875h239.6875l-115.574219-106.113281c-33.4375-30.703125-84.8125-30.703125-118.253906 0zm0 0" fill="url(#n)"/></svg>